<?xml version="1.0" standalone="no"?>
<!DOCTYPE svg PUBLIC "-//W3C//DTD SVG 20010904//EN"
 "http://www.w3.org/TR/2001/REC-SVG-20010904/DTD/svg10.dtd">
<svg version="1.0" xmlns="http://www.w3.org/2000/svg"
 width="197.000000pt" height="225.000000pt" viewBox="0 0 197.000000 225.000000"
 preserveAspectRatio="xMidYMid meet">
<metadata>
Created by potrace 1.16, written by Peter Selinger 2001-2019
</metadata>
<g transform="translate(0.000000,225.000000) scale(0.100000,-0.100000)"
fill="#000000" stroke="none">
<path d="M917 2078 c-8 -5 -14 -57 -17 -145 -5 -129 -7 -141 -34 -188 -38 -66
-70 -100 -132 -140 -68 -44 -92 -48 -279 -51 -88 -1 -166 -3 -172 -3 -10 -1
-13 -91 -13 -415 l0 -414 192 -4 c180 -3 196 -5 238 -27 143 -75 197 -168 200
-348 2 -65 3 -126 3 -135 1 -17 24 -18 324 -18 l323 0 1 178 c1 198 -1 285 -6
290 -2 2 -124 5 -272 6 l-268 2 -60 31 c-71 37 -131 98 -171 173 l-29 55 1
210 c0 232 7 262 78 345 101 119 147 132 469 132 l257 1 1 146 c1 206 -1 314
-5 318 -7 8 -618 8 -629 1z"/>
<path d="M1110 1358 c0 -4 -9 -5 -20 -3 -11 2 -18 0 -15 -6 4 -5 0 -9 -7 -9
-62 -2 -98 -113 -83 -265 6 -67 10 -78 43 -112 19 -21 40 -37 45 -35 5 1 14
-1 21 -6 6 -5 21 -8 34 -7 12 1 22 -2 22 -7 0 -5 8 -5 18 0 9 5 23 7 31 4 10
-3 12 0 8 12 -4 9 -2 16 4 16 6 0 7 5 4 10 -4 6 -12 7 -18 3 -7 -3 -3 4 8 17
18 21 18 23 2 17 -12 -5 -16 -3 -11 5 5 8 2 9 -9 5 -24 -9 -21 0 4 14 12 6 19
7 15 1 -3 -5 1 -13 10 -16 12 -5 13 -10 5 -19 -8 -10 -7 -17 1 -25 19 -19 32
-14 17 6 -7 9 -9 14 -5 10 5 -4 16 -2 24 4 20 17 39 18 39 2 0 -7 -5 -10 -10
-7 -6 4 -7 1 -2 -7 6 -9 4 -11 -5 -5 -9 6 -11 4 -5 -5 6 -9 4 -11 -5 -5 -9 6
-11 4 -5 -5 5 -8 4 -11 -3 -6 -6 3 -14 1 -18 -5 -4 -8 -9 -7 -15 2 -6 10 -8 7
-6 -8 1 -17 4 -19 14 -11 10 8 13 7 13 -3 0 -9 3 -10 8 -4 4 6 19 10 34 10 26
-1 26 0 11 17 -20 22 -1 24 21 2 9 -8 13 -20 10 -26 -4 -7 -2 -8 4 -4 8 5 8
13 0 31 -6 13 -15 22 -19 19 -8 -5 -13 10 -10 30 1 4 -4 14 -10 22 -13 16 2
19 17 4 6 -6 15 -5 24 1 13 9 13 10 -2 6 -23 -8 -31 4 -12 17 8 6 17 20 18 31
2 11 9 19 16 17 6 -1 8 3 5 9 -5 8 -10 8 -18 0 -13 -13 -37 -15 -37 -2 0 5 10
11 22 14 12 4 19 9 16 12 -8 9 -48 -13 -48 -26 0 -5 10 -13 21 -17 20 -8 20
-9 4 -25 -9 -9 -22 -17 -28 -17 -7 0 -4 7 5 14 16 12 16 14 -7 26 -14 7 -25
17 -25 22 0 5 6 6 13 2 7 -5 6 -1 -2 10 -13 16 -13 18 0 16 30 -5 41 0 35 16
-5 12 -1 14 15 9 15 -5 19 -4 14 5 -4 7 -18 9 -34 6 -27 -7 -20 2 24 29 14 9
14 12 1 30 -11 16 -17 17 -27 8 -10 -10 -9 -15 1 -28 11 -13 10 -15 -8 -12
-12 2 -25 6 -28 10 -4 4 -13 2 -21 -5 -11 -8 -17 -8 -26 2 -9 10 -9 11 1 6 6
-4 12 -2 12 4 0 6 4 9 9 6 5 -3 11 1 15 9 3 8 1 17 -4 20 -6 4 -10 0 -10 -7 0
-8 -5 -6 -11 5 -15 25 -3 34 18 15 10 -9 27 -13 38 -11 11 2 28 4 39 4 18 0
18 1 0 13 -20 15 -27 56 -9 56 7 0 12 -10 11 -22 -1 -14 6 -24 17 -26 9 -2 17
1 17 7 0 6 -8 7 -17 4 -15 -6 -16 -4 -5 9 9 11 10 18 2 23 -6 3 -8 11 -5 16 7
10 -24 1 -42 -14 -9 -6 -13 -6 -13 2 0 6 10 16 23 21 18 7 19 9 5 11 -10 1
-22 3 -28 4 -5 1 -13 3 -17 4 -5 1 -2 5 5 10 9 5 3 8 -17 7 -17 -1 -31 -4 -31
-8 0 -5 -5 -8 -11 -8 -5 0 -7 6 -3 13 5 8 2 8 -9 -2 -12 -9 -17 -10 -17 -2 0
9 -5 9 -20 1 -11 -6 -20 -7 -20 -2 0 4 -9 8 -20 8 -11 0 -20 -4 -20 -8z m170
-18 c3 -2 10 -2 15 -1 6 1 2 -5 -8 -13 -14 -11 -15 -15 -4 -25 8 -6 17 -8 20
-4 4 3 7 1 7 -6 0 -7 -6 -11 -14 -8 -8 3 -20 0 -26 -8 -9 -11 -7 -13 14 -9 13
2 28 0 31 -6 6 -9 2 -11 -27 -13 -15 -1 -58 25 -58 35 0 4 7 5 15 2 8 -4 15
-2 15 4 0 5 -7 15 -15 22 -10 9 -15 9 -15 1 0 -6 -4 -11 -9 -11 -5 0 -4 11 2
25 11 21 28 26 57 15z m16 -162 c4 4 3 -1 -4 -10 -11 -14 -10 -18 4 -26 11 -6
13 -11 5 -16 -6 -4 -11 -2 -11 4 0 6 -10 4 -24 -5 -13 -8 -31 -13 -40 -9 -18
7 -21 20 -6 29 6 4 9 3 8 -2 -2 -4 2 -9 7 -10 13 -4 14 20 1 29 -6 4 -19 -1
-30 -10 -11 -9 -16 -12 -13 -5 4 6 4 13 0 16 -5 2 -2 2 5 1 6 -2 12 1 12 7 0
6 9 8 19 4 11 -3 22 -1 26 5 5 8 11 8 19 1 7 -6 17 -7 22 -3z"/>
</g>
</svg>
